<svg xmlns="http://www.w3.org/2000/svg" viewBox="0 0 800 400" width="800" height="400">
  <defs>
    <!-- Gradient definitions -->
    <linearGradient id="islamicGold" x1="0%" y1="0%" x2="100%" y2="100%">
      <stop offset="0%" style="stop-color:#FFD700;stop-opacity:0.3" />
      <stop offset="50%" style="stop-color:#FFA500;stop-opacity:0.2" />
      <stop offset="100%" style="stop-color:#FF8C00;stop-opacity:0.1" />
    </linearGradient>
    
    <radialGradient id="centerGlow" cx="50%" cy="50%" r="50%">
      <stop offset="0%" style="stop-color:#FFFFFF;stop-opacity:0.1" />
      <stop offset="100%" style="stop-color:#FFFFFF;stop-opacity:0" />
    </radialGradient>
    
    <!-- Islamic geometric pattern -->
    <pattern id="islamicPattern" x="0" y="0" width="40" height="40" patternUnits="userSpaceOnUse">
      <rect width="40" height="40" fill="none"/>
      <circle cx="20" cy="20" r="2" fill="#FFFFFF" opacity="0.1"/>
      <path d="M20,10 L30,20 L20,30 L10,20 Z" fill="none" stroke="#FFFFFF" stroke-width="0.5" opacity="0.15"/>
    </pattern>
    
    <!-- Arabesque pattern -->
    <pattern id="arabesque" x="0" y="0" width="60" height="60" patternUnits="userSpaceOnUse">
      <rect width="60" height="60" fill="none"/>
      <path d="M30,15 Q45,30 30,45 Q15,30 30,15" fill="none" stroke="#FFFFFF" stroke-width="0.8" opacity="0.1"/>
      <circle cx="30" cy="30" r="8" fill="none" stroke="#FFFFFF" stroke-width="0.5" opacity="0.08"/>
    </pattern>
  </defs>
  
  <!-- Background base -->
  <rect width="800" height="400" fill="url(#islamicGold)"/>
  
  <!-- Islamic geometric patterns -->
  <rect width="800" height="400" fill="url(#islamicPattern)"/>
  <rect width="800" height="400" fill="url(#arabesque)"/>
  
  <!-- Central glow -->
  <rect width="800" height="400" fill="url(#centerGlow)"/>
  
  <!-- Decorative Islamic elements -->
  <!-- Central ornament -->
  <g transform="translate(400,200)" opacity="0.15">
    <!-- Star and crescent inspired design -->
    <circle cx="0" cy="0" r="60" fill="none" stroke="#FFFFFF" stroke-width="1.5"/>
    <circle cx="0" cy="0" r="40" fill="none" stroke="#FFFFFF" stroke-width="1"/>
    
    <!-- 8-pointed star -->
    <g>
      <path d="M0,-50 L15,-15 L50,0 L15,15 L0,50 L-15,15 L-50,0 L-15,-15 Z" fill="#FFFFFF" opacity="0.1"/>
      <path d="M0,-50 L15,-15 L50,0 L15,15 L0,50 L-15,15 L-50,0 L-15,-15 Z" fill="none" stroke="#FFFFFF" stroke-width="1"/>
    </g>
    
    <!-- Inner decorative elements -->
    <circle cx="0" cy="0" r="20" fill="none" stroke="#FFFFFF" stroke-width="0.8"/>
    <circle cx="0" cy="0" r="10" fill="#FFFFFF" opacity="0.1"/>
  </g>
  
  <!-- Corner ornaments -->
  <g transform="translate(100,100)" opacity="0.1">
    <path d="M0,0 Q20,-10 40,0 Q30,20 20,40 Q0,30 -20,20 Q-10,0 0,0" fill="#FFFFFF"/>
  </g>
  
  <g transform="translate(700,100) rotate(90)" opacity="0.1">
    <path d="M0,0 Q20,-10 40,0 Q30,20 20,40 Q0,30 -20,20 Q-10,0 0,0" fill="#FFFFFF"/>
  </g>
  
  <g transform="translate(700,300) rotate(180)" opacity="0.1">
    <path d="M0,0 Q20,-10 40,0 Q30,20 20,40 Q0,30 -20,20 Q-10,0 0,0" fill="#FFFFFF"/>
  </g>
  
  <g transform="translate(100,300) rotate(270)" opacity="0.1">
    <path d="M0,0 Q20,-10 40,0 Q30,20 20,40 Q0,30 -20,20 Q-10,0 0,0" fill="#FFFFFF"/>
  </g>
  
  <!-- Arabic calligraphy inspired elements -->
  <g transform="translate(200,150)" opacity="0.12">
    <!-- Stylized Arabic letter forms -->
    <path d="M0,0 Q30,-20 60,0 Q45,15 30,30 Q15,15 0,0" fill="none" stroke="#FFFFFF" stroke-width="2" stroke-linecap="round"/>
    <path d="M10,35 Q25,25 40,35 Q35,45 30,55 Q20,50 10,35" fill="none" stroke="#FFFFFF" stroke-width="1.5" stroke-linecap="round"/>
  </g>
  
  <g transform="translate(600,250)" opacity="0.12">
    <path d="M0,0 Q-30,-20 -60,0 Q-45,15 -30,30 Q-15,15 0,0" fill="none" stroke="#FFFFFF" stroke-width="2" stroke-linecap="round"/>
    <path d="M-10,35 Q-25,25 -40,35 Q-35,45 -30,55 Q-20,50 -10,35" fill="none" stroke="#FFFFFF" stroke-width="1.5" stroke-linecap="round"/>
  </g>
  
  <!-- Decorative borders -->
  <rect x="20" y="20" width="760" height="360" fill="none" stroke="#FFFFFF" stroke-width="1" opacity="0.1" rx="10"/>
  <rect x="40" y="40" width="720" height="320" fill="none" stroke="#FFFFFF" stroke-width="0.5" opacity="0.08" rx="8"/>
  
  <!-- Subtle book/manuscript elements -->
  <g transform="translate(150,80)" opacity="0.08">
    <!-- Open book representation -->
    <path d="M0,0 L80,0 L80,100 L40,90 L0,100 Z" fill="#FFFFFF"/>
    <line x1="40" y1="0" x2="40" y2="90" stroke="#FFFFFF" stroke-width="0.5" opacity="0.5"/>
    <!-- Text lines -->
    <line x1="10" y1="20" x2="30" y2="20" stroke="#FFFFFF" stroke-width="0.3" opacity="0.6"/>
    <line x1="10" y1="30" x2="30" y2="30" stroke="#FFFFFF" stroke-width="0.3" opacity="0.6"/>
    <line x1="10" y1="40" x2="30" y2="40" stroke="#FFFFFF" stroke-width="0.3" opacity="0.6"/>
    <line x1="50" y1="20" x2="70" y2="20" stroke="#FFFFFF" stroke-width="0.3" opacity="0.6"/>
    <line x1="50" y1="30" x2="70" y2="30" stroke="#FFFFFF" stroke-width="0.3" opacity="0.6"/>
    <line x1="50" y1="40" x2="70" y2="40" stroke="#FFFFFF" stroke-width="0.3" opacity="0.6"/>
  </g>
  
  <g transform="translate(570,240)" opacity="0.08">
    <!-- Another book representation -->
    <path d="M0,0 L80,0 L80,100 L40,90 L0,100 Z" fill="#FFFFFF"/>
    <line x1="40" y1="0" x2="40" y2="90" stroke="#FFFFFF" stroke-width="0.5" opacity="0.5"/>
    <!-- Text lines -->
    <line x1="10" y1="20" x2="30" y2="20" stroke="#FFFFFF" stroke-width="0.3" opacity="0.6"/>
    <line x1="10" y1="30" x2="30" y2="30" stroke="#FFFFFF" stroke-width="0.3" opacity="0.6"/>
    <line x1="10" y1="40" x2="30" y2="40" stroke="#FFFFFF" stroke-width="0.3" opacity="0.6"/>
    <line x1="50" y1="20" x2="70" y2="20" stroke="#FFFFFF" stroke-width="0.3" opacity="0.6"/>
    <line x1="50" y1="30" x2="70" y2="30" stroke="#FFFFFF" stroke-width="0.3" opacity="0.6"/>
    <line x1="50" y1="40" x2="70" y2="40" stroke="#FFFFFF" stroke-width="0.3" opacity="0.6"/>
  </g>
</svg>